<svg id="svg" xmlns="http://www.w3.org/2000/svg" xmlns:xlink="http://www.w3.org/1999/xlink" width="400" height="164.95593571798858" viewBox="0, 0, 400,164.95593571798858" version="1.1"><g id="svgg"><path id="path0" d="M130.375 29.208 C 130.077 29.303,129.833 29.450,129.833 29.534 C 129.833 29.618,129.773 29.649,129.698 29.603 C 129.624 29.557,129.305 29.740,128.990 30.009 C 128.675 30.279,128.367 30.499,128.306 30.500 C 128.245 30.500,127.870 30.798,127.473 31.162 C 127.075 31.526,126.705 31.826,126.651 31.829 C 126.596 31.831,126.283 32.077,125.955 32.375 C 125.627 32.673,124.857 33.367,124.244 33.917 C 122.734 35.271,119.198 38.815,117.667 40.508 C 116.979 41.268,116.192 42.133,115.917 42.429 C 115.642 42.726,115.154 43.282,114.833 43.667 C 114.513 44.051,114.025 44.613,113.750 44.917 C 113.475 45.220,113.011 45.756,112.718 46.109 C 111.645 47.401,111.238 47.876,110.692 48.473 C 110.385 48.809,109.935 49.345,109.692 49.666 C 109.449 49.986,109.100 50.405,108.917 50.597 C 108.627 50.900,107.778 51.882,106.785 53.062 C 106.621 53.257,106.320 53.604,106.115 53.833 C 105.911 54.063,105.408 54.659,104.997 55.158 C 104.586 55.657,104.100 56.230,103.917 56.431 C 103.733 56.632,103.396 57.031,103.167 57.317 C 102.938 57.603,102.563 58.049,102.333 58.309 C 102.104 58.568,101.579 59.177,101.167 59.662 C 100.278 60.707,99.796 61.266,99.290 61.839 C 99.085 62.071,98.692 62.548,98.417 62.898 C 98.142 63.249,97.767 63.702,97.583 63.905 C 97.400 64.109,96.950 64.639,96.583 65.083 C 96.217 65.528,95.729 66.098,95.500 66.351 C 95.271 66.604,94.896 67.053,94.667 67.349 C 94.438 67.645,94.025 68.134,93.750 68.436 C 93.475 68.738,93.100 69.181,92.917 69.422 C 92.733 69.662,92.358 70.105,92.083 70.407 C 91.808 70.709,91.380 71.209,91.132 71.520 C 90.142 72.755,89.739 73.243,89.500 73.494 C 89.362 73.638,88.989 74.087,88.670 74.492 C 88.351 74.897,87.938 75.384,87.753 75.574 C 87.568 75.764,87.192 76.208,86.917 76.562 C 86.642 76.915,86.304 77.337,86.167 77.500 C 86.029 77.662,85.692 78.073,85.417 78.413 C 85.142 78.752,84.729 79.241,84.500 79.499 C 84.271 79.758,83.896 80.211,83.667 80.507 C 83.438 80.803,82.926 81.429,82.531 81.898 C 82.136 82.366,81.648 82.958,81.448 83.211 C 81.247 83.465,80.877 83.907,80.625 84.194 C 80.373 84.481,80.166 84.761,80.166 84.816 C 80.165 84.872,79.922 85.186,79.624 85.514 C 79.164 86.023,78.429 86.924,77.755 87.808 C 77.660 87.931,77.429 88.201,77.241 88.408 C 77.052 88.614,76.606 89.189,76.249 89.683 C 75.892 90.178,75.427 90.763,75.215 90.982 C 75.004 91.202,74.664 91.652,74.460 91.982 C 74.257 92.313,73.961 92.733,73.805 92.917 C 73.648 93.100,73.328 93.475,73.093 93.750 C 72.859 94.025,72.667 94.295,72.667 94.351 C 72.667 94.406,72.498 94.640,72.292 94.871 C 71.618 95.624,71.333 96.001,71.333 96.141 C 71.333 96.216,71.110 96.497,70.838 96.764 C 70.566 97.031,70.341 97.343,70.338 97.457 C 70.335 97.571,70.183 97.758,70.000 97.872 C 69.817 97.987,69.667 98.140,69.667 98.214 C 69.667 98.343,69.527 98.537,69.000 99.145 C 68.862 99.304,68.460 99.861,68.105 100.383 C 67.750 100.906,67.399 101.333,67.324 101.333 C 67.250 101.333,67.146 101.465,67.093 101.625 C 67.040 101.785,66.791 102.152,66.540 102.439 C 65.687 103.414,65.304 103.916,65.125 104.292 C 65.027 104.498,64.891 104.667,64.823 104.667 C 64.755 104.667,64.552 104.917,64.371 105.223 C 64.032 105.799,63.739 106.178,62.958 107.058 C 62.706 107.342,62.500 107.627,62.500 107.692 C 62.500 107.757,62.406 107.910,62.292 108.034 C 61.817 108.544,60.702 109.951,60.403 110.414 C 60.096 110.892,59.928 111.106,59.292 111.833 C 59.131 112.017,59.000 112.242,59.000 112.333 C 59.000 112.425,58.944 112.502,58.875 112.504 C 58.806 112.507,58.566 112.807,58.341 113.171 C 58.117 113.535,57.873 113.833,57.800 113.833 C 57.727 113.833,57.667 113.927,57.666 114.042 C 57.666 114.222,57.453 114.524,56.670 115.451 C 56.576 115.562,56.500 115.697,56.500 115.752 C 56.500 115.807,55.949 116.691,55.276 117.717 C 54.603 118.744,53.909 119.846,53.735 120.167 C 53.560 120.487,53.365 120.789,53.302 120.837 C 53.239 120.884,52.948 121.409,52.654 122.003 C 52.361 122.597,52.074 123.121,52.017 123.167 C 51.960 123.212,51.764 123.550,51.582 123.917 C 51.399 124.283,51.212 124.621,51.165 124.667 C 50.994 124.833,48.605 129.753,48.635 129.875 C 48.653 129.944,48.592 130.000,48.500 130.000 C 48.408 130.000,48.333 130.121,48.333 130.269 C 48.333 130.417,48.188 130.811,48.010 131.144 C 47.452 132.190,46.667 134.013,46.667 134.262 C 46.667 134.393,46.600 134.500,46.519 134.500 C 46.438 134.500,46.321 134.856,46.259 135.292 C 46.198 135.727,46.109 136.215,46.063 136.375 C 45.914 136.883,46.834 136.730,47.579 136.123 C 48.821 135.111,53.822 129.963,54.826 128.663 C 55.143 128.252,55.593 127.717,55.826 127.473 C 56.059 127.228,56.587 126.605,57.000 126.086 C 57.413 125.568,57.909 124.968,58.104 124.752 C 58.299 124.536,58.636 124.111,58.852 123.807 C 59.068 123.503,59.359 123.134,59.498 122.986 C 59.903 122.554,60.333 122.003,60.333 121.916 C 60.333 121.837,60.880 121.166,61.292 120.740 C 61.406 120.621,61.500 120.447,61.500 120.354 C 61.500 120.260,61.594 120.123,61.709 120.050 C 61.824 119.977,62.134 119.598,62.398 119.208 C 62.662 118.819,62.942 118.500,63.018 118.500 C 63.095 118.500,63.268 118.288,63.402 118.029 C 63.535 117.770,63.856 117.329,64.114 117.048 C 64.372 116.767,64.696 116.372,64.833 116.170 C 64.971 115.968,65.196 115.665,65.333 115.497 C 65.471 115.328,65.808 114.914,66.083 114.576 C 66.358 114.239,66.715 113.809,66.875 113.622 C 67.035 113.435,67.168 113.238,67.169 113.183 C 67.171 113.128,67.508 112.709,67.919 112.251 C 68.330 111.793,68.667 111.365,68.667 111.300 C 68.667 111.235,68.966 110.859,69.331 110.466 C 69.697 110.072,69.997 109.705,69.998 109.649 C 69.999 109.594,70.169 109.360,70.375 109.129 C 70.914 108.526,71.209 108.147,71.553 107.614 C 71.719 107.356,71.965 107.018,72.099 106.864 C 72.953 105.878,73.167 105.605,73.167 105.500 C 73.167 105.435,73.335 105.198,73.542 104.974 C 73.748 104.749,74.124 104.263,74.378 103.894 C 74.632 103.524,75.007 103.043,75.212 102.823 C 75.416 102.604,75.560 102.400,75.531 102.370 C 75.484 102.321,75.798 101.905,76.791 100.703 C 76.998 100.454,77.166 100.160,77.166 100.050 C 77.167 99.940,77.262 99.790,77.379 99.717 C 77.496 99.643,77.734 99.360,77.907 99.088 C 78.081 98.815,78.286 98.515,78.364 98.421 C 78.645 98.078,79.423 97.028,79.667 96.662 C 80.198 95.865,81.158 94.571,81.407 94.319 C 81.550 94.174,81.667 94.006,81.667 93.946 C 81.667 93.886,81.775 93.705,81.906 93.544 C 82.038 93.382,82.414 92.912,82.741 92.500 C 83.068 92.087,83.397 91.673,83.473 91.579 C 83.548 91.485,83.753 91.185,83.928 90.912 C 84.103 90.640,84.340 90.318,84.456 90.196 C 84.572 90.075,84.668 89.925,84.671 89.863 C 84.673 89.801,84.935 89.450,85.254 89.083 C 85.898 88.343,85.855 88.397,86.667 87.280 C 86.987 86.838,87.493 86.201,87.791 85.864 C 88.088 85.526,88.332 85.205,88.333 85.151 C 88.333 85.096,88.469 84.894,88.635 84.703 C 88.802 84.511,89.083 84.155,89.260 83.911 C 89.931 82.989,90.534 82.249,90.695 82.149 C 90.787 82.093,90.854 81.997,90.844 81.936 C 90.826 81.825,90.883 81.748,91.544 80.989 C 91.749 80.754,92.067 80.351,92.250 80.093 C 92.433 79.835,92.740 79.448,92.932 79.233 C 93.123 79.018,93.423 78.643,93.598 78.400 C 94.041 77.785,94.713 76.949,94.925 76.750 C 95.023 76.658,95.322 76.283,95.590 75.917 C 96.106 75.212,96.587 74.617,97.000 74.175 C 97.241 73.918,97.608 73.479,98.726 72.109 C 99.014 71.757,99.502 71.194,99.811 70.859 C 100.119 70.524,100.581 69.950,100.838 69.583 C 101.094 69.217,101.442 68.796,101.610 68.648 C 101.779 68.500,102.104 68.132,102.333 67.829 C 102.563 67.527,102.975 67.038,103.250 66.743 C 104.037 65.900,105.435 64.298,105.861 63.752 C 106.075 63.478,106.513 62.981,106.833 62.647 C 107.154 62.313,107.717 61.685,108.083 61.251 C 108.797 60.406,110.395 58.664,111.750 57.253 C 112.208 56.775,113.408 55.498,114.417 54.415 C 116.895 51.753,119.205 49.502,119.458 49.501 C 119.769 49.500,119.713 49.750,119.250 50.433 C 119.021 50.770,118.833 51.149,118.833 51.273 C 118.833 51.398,118.758 51.500,118.667 51.500 C 118.575 51.500,118.500 51.566,118.500 51.646 C 118.500 51.808,116.444 55.468,116.179 55.777 C 116.088 55.884,115.965 56.166,115.905 56.404 C 115.845 56.642,115.732 56.876,115.653 56.925 C 115.574 56.974,115.380 57.292,115.221 57.632 C 115.063 57.972,114.892 58.288,114.841 58.333 C 114.789 58.379,114.486 58.942,114.165 59.583 C 113.845 60.225,113.544 60.788,113.496 60.833 C 113.326 60.996,110.333 67.125,110.333 67.311 C 110.333 67.415,110.267 67.500,110.186 67.500 C 110.043 67.500,109.779 68.123,109.815 68.375 C 109.825 68.444,109.758 68.500,109.667 68.500 C 109.575 68.500,109.500 68.650,109.500 68.833 C 109.500 69.017,109.426 69.167,109.337 69.167 C 109.247 69.167,109.124 69.373,109.064 69.625 C 109.003 69.877,108.890 70.165,108.812 70.265 C 108.523 70.636,107.333 73.054,107.333 73.273 C 107.333 73.398,107.267 73.500,107.186 73.500 C 107.105 73.500,106.984 73.669,106.917 73.875 C 106.850 74.081,106.781 74.287,106.763 74.333 C 106.746 74.379,106.349 75.204,105.882 76.167 C 104.906 78.176,103.668 80.942,103.663 81.125 C 103.661 81.194,103.438 81.700,103.167 82.250 C 102.896 82.800,102.672 83.345,102.670 83.461 C 102.668 83.576,102.600 83.801,102.519 83.961 C 102.243 84.503,102.024 85.083,101.747 86.000 C 101.595 86.504,101.365 87.153,101.235 87.442 C 101.106 87.731,100.999 88.068,100.998 88.192 C 100.996 88.316,100.874 88.754,100.726 89.167 C 100.353 90.204,99.882 92.194,99.501 94.333 C 99.395 94.929,99.239 95.754,99.154 96.167 C 98.421 99.733,98.440 103.491,99.198 105.000 C 99.588 105.776,100.660 106.957,101.165 107.166 C 101.441 107.280,101.667 107.431,101.667 107.501 C 101.667 108.547,107.720 107.694,109.182 106.442 C 109.359 106.291,109.559 106.165,109.627 106.162 C 109.735 106.158,110.543 105.579,112.241 104.289 C 112.927 103.768,117.859 98.818,119.167 97.338 C 120.165 96.209,121.111 95.180,122.958 93.221 C 123.348 92.808,123.667 92.406,123.667 92.329 C 123.667 92.252,123.818 92.141,124.002 92.083 C 124.187 92.024,124.298 91.912,124.250 91.833 C 124.202 91.755,124.309 91.644,124.489 91.587 C 124.669 91.530,124.861 91.341,124.917 91.167 C 124.972 90.993,125.159 90.805,125.333 90.750 C 125.507 90.695,125.695 90.507,125.750 90.333 C 125.805 90.159,125.993 89.972,126.167 89.917 C 126.341 89.861,126.528 89.674,126.583 89.500 C 126.639 89.326,126.826 89.139,127.000 89.083 C 127.174 89.028,127.363 88.837,127.419 88.658 C 127.476 88.479,127.582 88.333,127.655 88.333 C 127.856 88.333,128.995 87.217,128.896 87.118 C 128.848 87.070,128.960 86.982,129.146 86.923 C 129.331 86.864,129.529 86.670,129.586 86.491 C 129.643 86.313,129.754 86.167,129.833 86.167 C 129.912 86.167,130.075 86.060,130.196 85.930 C 131.058 85.002,135.595 80.500,138.608 77.583 C 140.596 75.658,142.829 73.448,143.570 72.672 C 144.311 71.896,145.685 70.491,146.625 69.552 C 147.565 68.612,148.333 67.761,148.333 67.662 C 148.333 67.562,148.390 67.514,148.458 67.556 C 148.621 67.655,149.011 67.233,148.879 67.101 C 148.823 67.045,148.854 67.000,148.947 67.000 C 149.040 67.000,149.289 66.850,149.500 66.667 C 149.711 66.483,149.847 66.333,149.802 66.333 C 149.732 66.333,154.667 61.393,156.533 59.594 C 157.495 58.668,158.012 58.918,157.431 60.030 C 157.303 60.276,157.145 60.721,157.079 61.019 C 157.014 61.317,156.819 61.812,156.647 62.119 C 156.474 62.426,156.333 62.757,156.333 62.855 C 156.333 62.953,156.227 63.269,156.097 63.558 C 155.968 63.847,155.552 64.833,155.174 65.750 C 154.796 66.667,154.424 67.567,154.349 67.750 C 154.273 67.933,154.128 68.271,154.026 68.500 C 153.756 69.107,153.447 69.900,153.431 70.028 C 153.423 70.089,153.360 70.195,153.292 70.264 C 153.223 70.333,153.167 70.487,153.167 70.606 C 153.167 70.726,152.975 71.257,152.740 71.787 C 152.506 72.317,152.244 72.919,152.157 73.125 C 152.071 73.331,151.928 73.669,151.839 73.875 C 151.424 74.840,150.147 78.113,150.090 78.354 C 150.056 78.504,149.872 78.966,149.683 79.381 C 149.494 79.797,148.998 81.062,148.583 82.193 C 148.167 83.325,147.722 84.512,147.594 84.833 C 147.225 85.760,147.121 86.062,147.056 86.396 C 147.023 86.568,146.893 86.943,146.767 87.229 C 146.642 87.516,146.339 88.350,146.095 89.083 C 145.850 89.817,145.584 90.567,145.504 90.750 C 145.423 90.933,145.196 91.646,144.999 92.333 C 144.802 93.021,144.507 93.958,144.343 94.417 C 144.009 95.350,143.385 97.445,143.176 98.333 C 143.101 98.654,142.911 99.367,142.754 99.917 C 142.597 100.467,142.359 101.367,142.225 101.917 C 142.091 102.467,141.916 103.179,141.835 103.500 C 141.642 104.270,140.841 108.048,140.669 109.000 C 139.924 113.127,139.809 119.878,140.456 121.541 C 141.145 123.312,142.087 124.489,143.583 125.445 L 144.583 126.083 146.917 126.071 C 149.597 126.056,151.102 125.578,153.154 124.089 C 153.647 123.730,155.432 121.857,155.796 121.315 C 156.722 119.938,156.983 119.500,156.878 119.500 C 156.817 119.500,156.857 119.410,156.967 119.300 C 157.575 118.691,156.751 118.587,156.103 119.190 C 155.927 119.354,155.719 119.449,155.641 119.401 C 155.564 119.353,155.500 119.387,155.500 119.477 C 155.500 119.567,155.222 119.733,154.882 119.845 C 154.541 119.957,153.916 120.223,153.492 120.436 C 150.408 121.985,148.686 121.376,148.379 118.627 C 148.148 116.560,148.221 115.274,148.751 112.083 C 148.971 110.758,149.124 109.774,149.438 107.667 C 149.485 107.346,149.589 106.821,149.668 106.500 C 149.747 106.179,149.862 105.467,149.924 104.917 C 149.986 104.367,150.143 103.467,150.275 102.917 C 150.623 101.453,150.655 101.307,150.769 100.667 C 150.826 100.346,150.984 99.671,151.119 99.167 C 151.254 98.662,151.432 97.925,151.513 97.529 C 151.595 97.132,151.782 96.420,151.930 95.945 C 152.078 95.471,152.222 94.916,152.251 94.712 C 152.280 94.508,152.467 93.812,152.667 93.165 C 152.867 92.518,153.047 91.898,153.065 91.786 C 153.084 91.675,153.223 91.171,153.374 90.667 C 154.078 88.315,154.493 86.875,154.598 86.417 C 154.661 86.142,154.765 85.842,154.829 85.750 C 154.893 85.658,155.079 85.133,155.242 84.583 C 155.925 82.287,156.365 80.897,156.509 80.583 C 156.593 80.400,156.964 79.313,157.333 78.167 C 157.703 77.021,158.071 75.933,158.152 75.750 C 158.232 75.567,158.425 75.042,158.580 74.583 C 158.735 74.125,158.905 73.637,158.958 73.500 C 159.011 73.362,159.065 73.212,159.077 73.167 C 159.183 72.777,159.381 72.185,159.510 71.875 C 159.596 71.669,159.734 71.331,159.817 71.125 C 159.996 70.678,160.737 68.619,160.762 68.500 C 160.790 68.364,161.007 67.807,161.412 66.833 C 161.622 66.329,161.923 65.542,162.081 65.083 C 162.410 64.129,162.642 63.542,162.853 63.127 C 162.934 62.968,163.000 62.706,163.001 62.544 C 163.002 62.382,163.098 62.063,163.216 61.833 C 163.333 61.604,163.566 61.042,163.733 60.583 C 163.899 60.125,164.355 58.925,164.746 57.917 C 165.136 56.908,165.587 55.746,165.746 55.333 C 165.906 54.921,166.297 53.908,166.615 53.083 C 166.934 52.258,167.319 51.321,167.472 51.000 C 167.822 50.265,167.878 46.988,167.542 46.875 C 167.427 46.837,167.333 46.731,167.333 46.641 C 167.333 46.428,166.905 46.000,166.692 46.000 C 166.602 46.000,166.497 45.907,166.459 45.793 C 166.387 45.577,164.074 45.495,163.417 45.685 C 163.233 45.738,162.877 45.839,162.625 45.909 C 162.373 45.979,162.167 46.094,162.167 46.165 C 162.167 46.275,161.708 46.484,161.297 46.561 C 161.231 46.573,161.031 46.709,160.852 46.862 C 160.673 47.015,160.365 47.227,160.167 47.333 C 159.970 47.439,159.669 47.651,159.499 47.804 C 158.950 48.301,158.683 48.500,158.567 48.500 C 158.505 48.500,158.108 48.804,157.685 49.176 C 157.263 49.547,156.687 50.054,156.407 50.301 C 156.127 50.548,155.568 51.012,155.165 51.333 C 154.762 51.654,153.896 52.442,153.240 53.083 C 151.668 54.622,148.825 57.310,144.429 61.417 C 143.447 62.333,142.199 63.505,141.655 64.020 C 141.112 64.536,140.667 64.936,140.667 64.909 C 140.667 64.882,140.228 65.285,139.691 65.805 C 139.154 66.325,137.875 67.537,136.847 68.500 C 134.540 70.662,125.700 79.503,124.000 81.349 C 123.313 82.096,122.337 83.132,121.833 83.651 C 121.329 84.170,120.553 85.020,120.108 85.539 C 119.663 86.058,118.966 86.843,118.559 87.283 C 118.152 87.723,117.204 88.750,116.451 89.565 C 115.699 90.380,114.596 91.547,114.000 92.160 C 113.404 92.772,111.867 94.357,110.583 95.682 C 109.300 97.008,107.875 98.353,107.417 98.671 C 106.958 98.989,106.539 99.310,106.485 99.383 C 106.070 99.946,105.852 96.977,106.260 96.317 C 106.304 96.246,106.384 95.873,106.438 95.488 C 106.492 95.103,106.679 94.217,106.854 93.519 C 107.029 92.821,107.203 92.124,107.241 91.969 C 107.522 90.828,107.888 89.529,108.006 89.250 C 108.084 89.067,108.199 88.657,108.261 88.339 C 108.324 88.021,108.436 87.646,108.509 87.505 C 108.582 87.365,108.751 86.912,108.885 86.500 C 109.272 85.306,109.831 83.812,110.195 83.000 C 110.823 81.601,111.134 80.918,111.400 80.349 C 111.547 80.037,111.667 79.681,111.667 79.558 C 111.667 79.434,111.729 79.333,111.806 79.333 C 111.882 79.333,111.944 79.234,111.944 79.113 C 111.944 78.992,112.175 78.411,112.457 77.822 C 113.151 76.372,114.065 74.395,114.416 73.583 C 114.574 73.217,114.883 72.553,115.102 72.110 C 115.321 71.666,115.500 71.197,115.500 71.068 C 115.500 70.939,115.575 70.833,115.667 70.833 C 115.758 70.833,115.833 70.737,115.833 70.619 C 115.833 70.500,115.988 70.107,116.178 69.744 C 116.367 69.380,116.548 68.965,116.579 68.821 C 116.611 68.676,116.939 67.945,117.309 67.196 C 117.679 66.446,117.939 65.833,117.887 65.833 C 117.835 65.833,117.867 65.740,117.959 65.625 C 118.112 65.433,119.034 63.781,119.657 62.583 C 119.800 62.309,119.962 62.046,120.017 62.000 C 120.072 61.954,120.256 61.617,120.425 61.250 C 120.594 60.883,120.774 60.546,120.825 60.500 C 120.935 60.400,121.512 59.369,122.037 58.333 C 122.246 57.921,122.454 57.546,122.500 57.500 C 122.546 57.454,122.733 57.117,122.915 56.750 C 123.098 56.383,123.285 56.046,123.332 56.000 C 123.441 55.893,123.705 55.419,124.376 54.126 C 124.673 53.553,124.973 53.058,125.042 53.028 C 125.110 52.997,125.167 52.902,125.167 52.816 C 125.167 52.730,125.355 52.362,125.585 51.997 C 125.816 51.632,125.947 51.332,125.877 51.331 C 125.807 51.329,125.825 51.273,125.917 51.206 C 126.008 51.138,126.449 50.371,126.896 49.500 C 127.344 48.629,127.799 47.804,127.909 47.667 C 128.019 47.529,128.431 46.742,128.825 45.917 C 129.218 45.092,129.613 44.371,129.701 44.315 C 129.790 44.259,129.867 44.146,129.874 44.065 C 129.890 43.881,130.322 42.943,130.749 42.167 C 130.925 41.846,131.073 41.546,131.077 41.500 C 131.081 41.454,131.339 40.892,131.649 40.250 C 132.848 37.769,133.000 37.428,133.000 37.217 C 133.000 37.098,133.075 37.000,133.167 37.000 C 133.258 37.000,133.333 36.863,133.333 36.694 C 133.333 36.526,133.390 36.333,133.458 36.264 C 133.527 36.195,133.586 36.089,133.589 36.028 C 133.591 35.967,133.813 35.354,134.081 34.667 C 135.508 31.006,133.588 28.177,130.375 29.208 M245.341 51.158 C 245.208 51.242,245.039 51.274,244.966 51.229 C 244.893 51.184,244.833 51.221,244.833 51.312 C 244.833 51.403,244.673 51.529,244.476 51.591 C 244.094 51.712,243.507 52.266,242.833 53.141 C 242.604 53.439,242.229 53.894,242.000 54.152 C 241.771 54.410,241.321 54.944,241.000 55.337 C 240.679 55.731,240.133 56.360,239.787 56.735 C 239.440 57.110,239.044 57.623,238.907 57.875 C 238.770 58.127,238.590 58.333,238.507 58.333 C 238.424 58.333,238.314 58.465,238.263 58.625 C 238.211 58.785,237.813 59.296,237.376 59.759 C 236.940 60.222,236.369 60.885,236.106 61.231 C 235.844 61.577,235.432 62.072,235.190 62.331 C 234.583 62.980,233.467 64.307,233.172 64.732 C 233.037 64.925,232.774 65.243,232.588 65.439 C 232.402 65.634,232.063 66.033,231.833 66.325 C 231.604 66.617,231.229 67.071,231.000 67.334 C 230.534 67.868,230.001 68.506,228.957 69.779 C 225.429 74.080,224.002 75.499,224.000 74.708 C 223.999 74.640,223.664 74.358,223.253 74.083 C 222.843 73.808,222.506 73.533,222.504 73.472 C 222.502 73.410,222.256 73.308,221.958 73.244 C 221.660 73.180,221.342 73.072,221.250 73.004 C 220.956 72.784,219.118 72.686,218.000 72.830 C 216.930 72.968,215.840 73.227,215.000 73.544 C 214.862 73.596,214.188 73.839,213.500 74.084 C 212.813 74.330,211.762 74.756,211.167 75.032 C 210.571 75.307,210.046 75.531,210.000 75.528 C 209.954 75.526,209.804 75.615,209.667 75.727 C 209.529 75.839,209.192 76.040,208.917 76.174 C 208.642 76.307,208.318 76.510,208.197 76.625 C 208.076 76.739,207.794 76.879,207.572 76.934 C 207.349 76.990,207.167 77.103,207.167 77.185 C 207.167 77.266,207.110 77.318,207.042 77.299 C 206.973 77.281,206.482 77.524,205.951 77.841 C 204.109 78.939,203.082 79.513,202.792 79.609 C 202.631 79.662,202.500 79.764,202.500 79.836 C 202.500 79.908,202.294 80.049,202.042 80.148 C 201.562 80.337,200.611 80.858,200.142 81.189 C 199.786 81.440,198.186 82.346,196.917 83.015 C 196.367 83.306,195.879 83.597,195.833 83.662 C 195.754 83.777,195.472 83.936,194.167 84.605 C 193.846 84.769,193.480 85.005,193.354 85.128 C 193.228 85.251,192.778 85.512,192.354 85.708 C 191.930 85.904,191.546 86.106,191.500 86.157 C 191.454 86.208,191.154 86.379,190.833 86.537 C 190.512 86.695,189.725 87.122,189.083 87.487 C 188.442 87.851,187.504 88.356,187.000 88.609 C 186.496 88.861,186.045 89.121,185.998 89.187 C 185.952 89.253,185.708 89.358,185.457 89.422 C 185.205 89.485,185.000 89.603,185.000 89.685 C 185.000 89.766,184.850 89.833,184.667 89.833 C 184.483 89.833,184.333 89.900,184.333 89.981 C 184.333 90.105,184.171 90.186,183.500 90.398 C 183.454 90.413,182.442 90.908,181.250 91.500 C 180.058 92.092,179.046 92.584,179.000 92.594 C 178.954 92.604,178.804 92.656,178.667 92.710 C 177.217 93.278,174.785 93.447,174.493 93.000 C 174.046 92.314,174.164 91.543,175.054 89.333 C 175.147 89.104,175.235 88.879,175.250 88.833 C 175.412 88.359,175.564 88.017,175.767 87.667 C 175.901 87.438,176.172 86.912,176.371 86.500 C 176.569 86.087,176.773 85.712,176.824 85.667 C 176.946 85.557,177.461 84.622,177.971 83.583 C 178.196 83.125,178.434 82.712,178.499 82.667 C 178.564 82.621,178.756 82.283,178.925 81.917 C 179.094 81.550,179.312 81.195,179.408 81.128 C 179.517 81.051,179.520 81.003,179.417 81.000 C 179.306 80.997,179.306 80.954,179.417 80.872 C 180.220 80.282,181.034 77.461,180.594 76.790 C 179.585 75.250,177.199 76.498,174.500 79.979 C 174.271 80.274,173.896 80.728,173.667 80.987 C 173.017 81.721,172.651 82.217,172.458 82.625 C 172.360 82.831,172.217 83.000,172.140 83.000 C 172.063 83.000,172.000 83.112,172.000 83.250 C 172.000 83.387,171.921 83.500,171.823 83.500 C 171.726 83.500,171.689 83.569,171.741 83.652 C 171.793 83.736,171.779 83.830,171.709 83.861 C 171.459 83.972,169.700 87.106,169.574 87.667 C 169.564 87.712,169.469 87.960,169.362 88.216 C 169.256 88.472,169.121 88.884,169.062 89.132 C 169.002 89.380,168.910 89.658,168.857 89.750 C 168.336 90.644,168.478 95.067,169.061 96.083 C 170.762 99.052,175.837 100.281,179.750 98.672 C 179.933 98.597,180.432 98.412,180.858 98.260 C 181.845 97.910,190.812 93.384,191.285 92.998 C 191.395 92.907,191.595 92.833,191.729 92.833 C 191.863 92.833,191.997 92.771,192.028 92.695 C 192.100 92.514,195.635 90.746,195.731 90.843 C 195.817 90.930,195.652 91.764,195.203 93.506 C 194.516 96.170,194.585 98.586,195.381 99.750 C 195.777 100.329,196.776 101.333,196.959 101.334 C 197.027 101.335,197.308 101.454,197.583 101.599 C 198.342 101.998,200.512 101.944,201.667 101.497 C 202.171 101.301,202.771 101.082,203.000 101.010 C 203.489 100.855,205.059 99.984,206.256 99.203 C 206.436 99.086,206.715 98.946,206.875 98.892 C 207.035 98.839,207.167 98.728,207.167 98.647 C 207.167 98.566,207.274 98.500,207.405 98.500 C 207.536 98.500,207.742 98.404,207.863 98.286 C 208.213 97.945,209.667 97.000,209.842 97.000 C 209.929 97.000,210.000 96.941,210.000 96.869 C 210.000 96.797,210.244 96.595,210.542 96.419 C 211.123 96.077,211.342 95.915,211.845 95.458 C 212.022 95.298,212.168 95.223,212.169 95.292 C 212.171 95.360,212.227 95.337,212.294 95.239 C 212.362 95.141,212.863 94.729,213.408 94.322 C 213.954 93.916,214.598 93.396,214.840 93.167 C 215.082 92.938,215.599 92.487,215.989 92.167 C 216.379 91.846,217.513 90.781,218.510 89.800 C 221.202 87.153,221.282 87.149,221.352 89.669 C 221.433 92.590,222.108 94.607,223.438 95.904 C 223.882 96.337,224.624 96.849,224.769 96.824 C 224.830 96.814,224.925 96.868,224.981 96.945 C 225.726 97.968,231.995 98.235,234.083 97.332 C 234.451 97.173,235.015 97.006,235.207 97.000 C 235.275 96.998,235.596 96.847,235.921 96.665 C 236.245 96.482,236.620 96.333,236.755 96.333 C 236.890 96.333,237.000 96.254,237.000 96.157 C 237.000 96.060,237.067 96.021,237.148 96.072 C 237.229 96.122,237.377 96.065,237.476 95.946 C 237.575 95.826,238.052 95.546,238.536 95.323 C 239.021 95.100,239.516 94.824,239.637 94.709 C 239.758 94.594,239.964 94.500,240.095 94.500 C 240.226 94.500,240.333 94.443,240.333 94.373 C 240.333 94.303,240.615 94.111,240.958 93.947 C 241.302 93.782,241.883 93.475,242.250 93.264 C 242.617 93.053,243.488 92.572,244.186 92.195 L 245.456 91.510 245.436 93.963 C 245.417 96.381,245.424 96.429,245.898 97.250 C 246.432 98.173,247.564 99.333,247.931 99.333 C 248.060 99.333,248.167 99.396,248.167 99.473 C 248.167 100.050,251.775 100.259,253.500 99.781 C 255.049 99.353,257.919 98.147,258.167 97.821 C 258.212 97.761,258.400 97.664,258.583 97.607 C 258.767 97.549,259.118 97.333,259.364 97.126 C 259.610 96.919,260.244 96.450,260.772 96.083 C 261.754 95.402,266.167 91.087,266.167 90.808 C 266.167 90.361,267.712 89.156,267.980 89.394 C 271.070 92.135,275.555 91.866,282.750 88.510 C 283.575 88.125,284.625 87.635,285.083 87.421 C 287.602 86.244,288.151 86.009,288.556 85.936 C 288.800 85.892,289.000 85.881,289.000 85.912 C 289.000 86.031,287.756 88.287,287.243 89.097 C 286.948 89.562,286.656 90.106,286.592 90.305 C 286.529 90.504,286.408 90.667,286.322 90.667 C 286.237 90.667,286.167 90.779,286.167 90.917 C 286.167 91.054,286.110 91.167,286.042 91.167 C 285.973 91.168,285.778 91.505,285.608 91.917 C 285.439 92.329,285.233 92.667,285.150 92.667 C 285.068 92.667,285.000 92.769,285.000 92.893 C 285.000 93.018,284.815 93.393,284.588 93.727 C 284.362 94.060,284.217 94.333,284.266 94.333 C 284.316 94.333,284.210 94.540,284.031 94.792 C 283.257 95.882,282.109 98.093,281.769 99.146 C 280.935 101.728,281.498 103.220,283.396 103.462 C 284.390 103.589,285.819 102.363,287.429 100.000 C 287.773 99.496,288.098 99.046,288.153 99.000 C 288.207 98.954,288.473 98.617,288.742 98.250 C 289.012 97.883,289.311 97.528,289.408 97.461 C 289.504 97.394,289.527 97.337,289.458 97.336 C 289.390 97.334,289.465 97.189,289.625 97.012 C 290.193 96.386,290.312 96.201,290.212 96.101 C 290.157 96.045,290.192 96.000,290.292 96.000 C 290.391 96.000,290.636 95.736,290.836 95.412 C 291.036 95.089,291.287 94.733,291.393 94.621 C 291.500 94.508,291.730 94.194,291.905 93.922 C 292.175 93.500,292.793 92.699,293.954 91.262 C 294.097 91.086,294.458 90.621,294.757 90.230 C 295.055 89.838,295.476 89.337,295.692 89.115 C 295.907 88.894,296.533 88.205,297.083 87.585 C 298.303 86.210,301.513 83.002,303.256 81.417 C 303.962 80.775,304.737 80.063,304.980 79.833 C 305.932 78.933,307.523 77.714,307.592 77.833 C 307.618 77.879,307.827 77.741,308.055 77.527 C 309.025 76.615,309.204 77.165,308.832 79.917 C 308.212 84.500,308.208 84.359,308.944 83.896 C 310.064 83.193,312.750 80.460,313.140 79.628 C 314.607 76.496,314.380 73.760,312.502 71.909 C 312.273 71.684,311.959 71.500,311.803 71.500 C 311.647 71.500,311.473 71.425,311.417 71.333 C 311.096 70.815,306.833 71.628,306.833 72.207 C 306.833 72.277,306.767 72.333,306.687 72.333 C 306.238 72.333,304.140 73.813,302.787 75.083 C 302.396 75.450,301.710 76.050,301.262 76.417 C 300.814 76.783,300.328 77.204,300.182 77.352 C 299.923 77.615,299.279 78.000,299.098 78.000 C 299.049 78.000,298.858 77.670,298.674 77.267 C 298.050 75.897,297.622 75.536,296.627 75.545 C 295.835 75.551,294.465 76.083,294.167 76.500 C 294.121 76.564,293.995 76.647,293.888 76.683 C 293.780 76.720,293.420 76.975,293.088 77.250 C 292.756 77.525,292.094 78.069,291.617 78.459 C 290.754 79.164,290.346 79.509,289.092 80.596 C 288.731 80.910,288.380 81.167,288.313 81.167 C 288.245 81.167,288.091 81.260,287.970 81.375 C 287.013 82.280,283.745 84.056,281.500 84.891 C 275.692 87.051,271.000 87.187,271.000 85.196 C 271.000 85.027,270.944 84.833,270.875 84.764 C 270.806 84.695,270.744 84.514,270.737 84.361 C 270.730 84.208,270.676 83.821,270.616 83.500 C 270.557 83.179,270.474 82.654,270.431 82.333 C 270.089 79.779,269.530 77.811,268.923 77.026 C 267.388 75.039,265.337 74.391,262.667 75.049 C 262.529 75.083,262.079 75.201,261.667 75.312 C 260.921 75.513,260.804 75.556,259.641 76.066 C 259.307 76.213,258.966 76.333,258.884 76.333 C 258.565 76.333,253.103 79.215,252.387 79.761 C 252.095 79.984,251.808 80.167,251.749 80.167 C 251.691 80.167,251.327 80.384,250.941 80.650 C 250.555 80.915,249.867 81.338,249.411 81.588 C 248.956 81.838,248.160 82.329,247.642 82.678 C 247.125 83.027,246.656 83.267,246.601 83.212 C 246.545 83.156,246.500 83.187,246.500 83.279 C 246.500 83.372,246.221 83.591,245.880 83.765 C 245.538 83.940,245.182 84.142,245.088 84.214 C 244.918 84.343,244.324 84.705,241.417 86.450 C 239.311 87.713,239.290 87.726,239.037 87.958 C 238.912 88.073,238.734 88.167,238.641 88.167 C 238.549 88.167,238.085 88.419,237.612 88.727 C 237.138 89.035,236.487 89.429,236.167 89.602 C 235.846 89.775,235.546 89.956,235.500 90.004 C 235.267 90.248,234.480 90.667,234.256 90.667 C 234.115 90.667,234.000 90.742,234.000 90.833 C 234.000 90.925,233.944 90.986,233.875 90.969 C 233.806 90.952,233.450 91.069,233.083 91.229 C 230.065 92.546,227.857 92.519,227.162 91.158 C 226.816 90.479,226.683 88.069,226.974 87.742 C 227.051 87.655,227.245 87.133,227.404 86.583 C 227.563 86.033,227.830 85.246,227.995 84.833 C 228.161 84.421,228.349 83.840,228.411 83.544 C 228.474 83.247,228.595 82.961,228.679 82.909 C 228.764 82.856,228.834 82.687,228.834 82.532 C 228.835 82.377,228.947 82.035,229.084 81.773 C 229.221 81.510,229.333 81.223,229.333 81.136 C 229.333 81.048,229.446 80.864,229.583 80.726 C 229.721 80.589,229.833 80.346,229.833 80.186 C 229.833 80.027,229.983 79.735,230.167 79.538 C 230.350 79.342,230.500 79.131,230.500 79.071 C 230.500 78.903,232.059 76.424,232.205 76.361 C 232.275 76.331,232.333 76.234,232.333 76.146 C 232.333 76.058,232.409 75.895,232.500 75.785 C 232.828 75.390,233.837 73.912,233.947 73.667 C 234.008 73.529,234.252 73.154,234.488 72.833 C 235.046 72.074,235.098 72.007,235.588 71.417 C 235.816 71.142,236.044 70.785,236.096 70.625 C 236.147 70.465,236.254 70.333,236.333 70.333 C 236.413 70.333,236.520 70.200,236.571 70.038 C 236.623 69.876,236.872 69.510,237.124 69.226 C 237.876 68.379,238.166 68.003,238.171 67.873 C 238.173 67.805,238.416 67.479,238.712 67.147 C 239.215 66.583,239.727 65.958,240.448 65.026 C 240.614 64.811,240.902 64.474,241.088 64.276 C 241.274 64.078,241.537 63.759,241.672 63.566 C 242.028 63.055,243.306 61.547,244.124 60.673 C 244.513 60.257,244.832 59.862,244.832 59.795 C 244.833 59.728,245.077 59.413,245.375 59.097 C 246.195 58.225,246.667 57.651,246.667 57.526 C 246.667 57.464,246.837 57.227,247.044 56.998 C 248.093 55.846,248.736 53.565,248.299 52.550 C 247.803 51.398,246.174 50.631,245.341 51.158 M184.917 60.103 C 184.544 60.193,183.838 60.516,183.583 60.711 C 182.459 61.576,182.009 62.385,181.638 64.213 C 181.103 66.848,182.239 68.542,184.607 68.642 C 185.375 68.675,186.134 68.644,186.293 68.573 C 186.453 68.503,186.633 68.439,186.695 68.431 C 187.125 68.375,188.344 67.228,188.819 66.432 C 190.847 63.029,188.505 59.231,184.917 60.103 M327.666 60.056 C 327.621 60.101,327.358 60.170,327.083 60.209 C 326.220 60.331,324.500 61.458,324.500 61.901 C 324.500 61.956,324.307 62.395,324.071 62.876 C 323.173 64.709,323.538 67.190,324.850 68.154 C 326.315 69.232,329.681 68.546,330.657 66.971 C 332.452 64.071,331.747 60.667,329.257 60.219 C 328.211 60.030,327.740 59.982,327.666 60.056 M321.417 76.263 C 320.958 76.484,320.438 76.759,320.259 76.874 C 319.566 77.322,317.667 79.361,317.667 79.657 C 317.667 79.745,317.567 79.877,317.445 79.950 C 317.324 80.023,317.082 80.327,316.909 80.625 C 316.736 80.923,316.536 81.167,316.464 81.167 C 316.392 81.167,316.333 81.282,316.333 81.422 C 316.333 81.562,316.221 81.720,316.083 81.773 C 315.946 81.826,315.833 81.962,315.833 82.075 C 315.833 82.189,315.683 82.417,315.500 82.583 C 315.317 82.749,315.167 82.960,315.167 83.052 C 315.167 83.143,314.981 83.462,314.754 83.760 C 311.532 87.984,310.393 94.961,312.406 98.150 C 313.112 99.268,315.333 101.227,315.333 100.732 C 315.333 100.673,315.427 100.697,315.542 100.783 C 316.307 101.360,319.377 101.482,321.417 101.018 C 321.875 100.914,322.362 100.805,322.500 100.777 C 322.794 100.717,322.946 100.660,324.917 99.868 C 325.742 99.536,326.472 99.186,326.539 99.091 C 326.606 98.995,326.663 98.978,326.664 99.053 C 326.666 99.128,326.884 99.034,327.151 98.845 C 327.417 98.655,327.724 98.500,327.833 98.500 C 328.021 98.500,328.986 98.016,329.167 97.832 C 329.212 97.785,329.683 97.531,330.212 97.268 C 330.741 97.005,331.215 96.724,331.265 96.642 C 331.315 96.561,331.426 96.538,331.512 96.590 C 331.597 96.643,331.667 96.607,331.667 96.510 C 331.667 96.413,331.773 96.333,331.904 96.333 C 332.034 96.333,332.364 96.146,332.636 95.917 C 332.909 95.688,333.209 95.500,333.304 95.500 C 333.399 95.500,333.578 95.406,333.703 95.292 C 333.828 95.177,334.078 94.989,334.257 94.874 C 335.779 93.897,336.595 93.342,337.148 92.910 C 337.388 92.723,338.085 92.248,338.699 91.855 C 339.313 91.461,339.838 91.090,339.866 91.028 C 339.940 90.865,341.484 89.833,341.654 89.833 C 341.733 89.833,341.841 89.721,341.894 89.583 C 341.946 89.446,342.104 89.333,342.245 89.333 C 342.385 89.333,342.500 89.258,342.500 89.167 C 342.500 89.075,342.604 89.000,342.732 89.000 C 342.860 89.000,343.008 88.888,343.060 88.750 C 343.113 88.612,343.258 88.500,343.382 88.500 C 343.507 88.500,343.785 88.313,344.000 88.083 C 344.215 87.854,344.491 87.667,344.612 87.667 C 344.734 87.667,344.833 87.594,344.833 87.504 C 344.833 87.415,345.073 87.218,345.367 87.066 C 345.660 86.914,345.996 86.695,346.112 86.578 C 346.229 86.461,346.589 86.203,346.912 86.003 C 347.236 85.803,347.500 85.566,347.500 85.477 C 347.500 85.387,347.575 85.360,347.667 85.417 C 347.758 85.473,347.833 85.456,347.833 85.378 C 347.833 85.300,348.208 85.018,348.667 84.750 C 349.125 84.482,349.500 84.221,349.500 84.170 C 349.500 84.118,349.762 83.934,350.083 83.762 C 350.404 83.589,350.667 83.384,350.667 83.307 C 350.667 83.230,350.761 83.167,350.877 83.167 C 350.992 83.167,351.289 82.979,351.536 82.750 C 351.783 82.521,352.022 82.333,352.068 82.333 C 352.184 82.333,353.706 81.305,353.970 81.048 C 354.091 80.930,354.260 80.833,354.345 80.833 C 354.430 80.833,354.500 80.721,354.500 80.583 C 354.500 80.251,354.357 80.266,353.396 80.701 C 352.949 80.903,352.527 81.053,352.458 81.034 C 352.390 81.015,352.333 81.060,352.333 81.133 C 352.333 81.206,352.052 81.364,351.708 81.484 C 351.365 81.604,350.671 81.887,350.167 82.114 C 349.187 82.554,348.939 82.662,347.000 83.496 C 346.313 83.792,345.337 84.230,344.833 84.471 C 344.329 84.712,343.879 84.914,343.833 84.921 C 343.787 84.928,343.398 85.098,342.967 85.300 C 342.537 85.502,342.144 85.667,342.093 85.667 C 342.042 85.667,341.494 85.901,340.875 86.186 C 338.412 87.324,338.017 87.500,337.931 87.500 C 337.882 87.500,337.334 87.732,336.713 88.015 C 336.091 88.298,335.340 88.635,335.042 88.765 C 334.744 88.894,334.245 89.112,333.933 89.250 C 333.621 89.388,333.284 89.500,333.183 89.500 C 333.082 89.500,333.000 89.575,333.000 89.667 C 333.000 89.758,332.886 89.833,332.748 89.833 C 332.609 89.833,332.365 89.905,332.206 89.992 C 332.047 90.079,331.617 90.272,331.250 90.421 C 330.883 90.570,330.358 90.788,330.083 90.906 C 329.808 91.024,329.358 91.213,329.083 91.328 C 328.443 91.593,327.742 91.894,326.975 92.232 C 326.640 92.379,326.261 92.500,326.133 92.500 C 326.005 92.500,325.829 92.565,325.742 92.645 C 325.612 92.764,324.129 93.373,323.833 93.430 C 323.705 93.454,323.120 93.680,322.750 93.849 C 321.188 94.560,318.934 94.726,318.454 94.165 C 318.025 93.664,318.039 93.510,318.841 89.667 C 318.927 89.254,319.063 88.767,319.143 88.583 C 319.552 87.646,319.655 87.383,319.762 87.000 C 319.826 86.771,319.924 86.546,319.981 86.500 C 320.037 86.454,320.465 85.667,320.932 84.750 C 321.398 83.833,322.203 82.279,322.720 81.296 C 325.044 76.875,324.500 74.775,321.417 76.263 M217.416 80.764 C 217.309 82.230,216.231 83.672,213.501 86.000 C 213.018 86.412,212.499 86.862,212.348 87.000 C 211.937 87.376,211.101 88.042,210.570 88.417 C 210.310 88.600,209.981 88.862,209.838 89.000 C 209.695 89.138,209.356 89.394,209.085 89.570 C 208.814 89.746,208.515 89.951,208.421 90.026 C 208.327 90.101,208.006 90.357,207.708 90.596 C 207.410 90.834,207.167 90.972,207.167 90.902 C 207.167 90.832,206.998 90.927,206.792 91.114 C 206.585 91.300,206.173 91.591,205.875 91.762 C 205.577 91.932,205.333 92.131,205.333 92.203 C 205.333 92.275,205.226 92.333,205.095 92.333 C 204.964 92.333,204.758 92.427,204.637 92.542 C 203.537 93.584,201.543 94.334,201.758 93.625 C 201.821 93.419,201.882 93.175,201.894 93.083 C 201.907 92.992,201.954 92.879,202.000 92.833 C 202.046 92.787,202.306 92.300,202.577 91.750 C 202.849 91.200,203.113 90.712,203.165 90.667 C 203.217 90.621,203.332 90.418,203.421 90.216 C 203.977 88.956,208.201 84.596,210.255 83.161 C 210.711 82.843,211.121 82.545,211.167 82.498 C 211.967 81.683,215.974 79.871,217.034 79.844 C 217.478 79.833,217.483 79.845,217.416 80.764 M263.876 81.916 C 264.090 82.297,263.798 83.175,263.184 83.998 C 262.495 84.920,258.333 88.966,258.333 88.713 C 258.333 88.647,258.217 88.759,258.074 88.963 C 257.931 89.167,257.731 89.333,257.629 89.333 C 257.527 89.333,257.301 89.462,257.127 89.619 C 256.772 89.941,255.875 90.497,255.000 90.938 C 254.679 91.100,254.379 91.280,254.333 91.337 C 254.239 91.454,253.826 91.621,253.602 91.631 C 253.521 91.635,253.398 91.729,253.329 91.840 C 253.199 92.050,252.397 92.119,252.214 91.936 C 251.854 91.577,252.939 88.071,253.733 87.025 C 254.218 86.386,256.311 84.333,256.478 84.333 C 256.582 84.333,256.667 84.270,256.667 84.192 C 256.667 83.991,259.799 82.402,260.495 82.251 C 260.812 82.181,261.187 82.066,261.328 81.995 C 262.231 81.539,263.641 81.495,263.876 81.916 " stroke="none" fill="#14fc34" fill-rule="evenodd"></path><path id="path1" d="M131.906 73.208 L 131.417 73.750 131.958 73.260 C 132.256 72.991,132.500 72.748,132.500 72.719 C 132.500 72.590,132.362 72.703,131.906 73.208 M128.994 76.125 L 128.083 77.083 129.042 76.172 C 129.569 75.671,130.000 75.240,130.000 75.214 C 130.000 75.090,129.841 75.235,128.994 76.125 " stroke="none" fill="#18fc34" fill-rule="evenodd"></path></g></svg>